<?xml version="1.0" encoding="UTF-8"?><svg id="Layer_1" xmlns="http://www.w3.org/2000/svg" viewBox="0 0 512 108.7"><rect width="108.7" height="108.7" fill="#ff3b30" isolation="isolate" opacity=".15"/><rect x="27.17" y="27.17" width="54.35" height="54.35" fill="#ff3b30" isolation="isolate" opacity=".45"/><rect x="54.35" y="54.35" width="27.17" height="27.17" fill="#ff3b30"/><path d="M146.99,74.28c-2.21,2.62-6.04,4.16-10.27,4.16-5.17,0-11.28-3.49-11.28-10.74s6.11-10.34,11.28-10.34c4.3,0,8.12,1.34,10.27,3.96v-4.5c0-3.29-2.82-5.44-7.12-5.44-3.49,0-6.71,1.27-9.46,3.82l-3.22-5.7c3.96-3.49,9.06-5.1,14.16-5.1,7.38,0,14.16,2.95,14.16,12.28v20.94h-8.53v-3.36ZM146.99,65.83c-1.41-1.88-4.09-2.82-6.85-2.82-3.36,0-6.11,1.81-6.11,4.9s2.75,4.76,6.11,4.76c2.75,0,5.44-.94,6.85-2.82v-4.03Z" fill="#fafbfd"/><path d="M163.11,35.35c0-2.82,2.35-5.1,5.1-5.1s5.1,2.28,5.1,5.1-2.28,5.1-5.1,5.1-5.1-2.28-5.1-5.1ZM163.98,45.22h8.52v32.42h-8.52v-32.42Z" fill="#fafbfd"/><path d="M202.58,55.56l-6.85,22.08h-9.13l-9.87-32.42h8.86l6.04,21.81,7.12-21.81h7.58l7.12,21.81,6.04-21.81h8.86l-9.87,32.42h-9.06l-6.85-22.08Z" fill="#fafbfd"/><path d="M230.51,61.4c0-9.19,6.44-16.98,17.12-16.98s17.18,7.79,17.18,16.98-6.44,17.05-17.18,17.05-17.12-7.79-17.12-17.05ZM255.95,61.4c0-5.03-3.02-9.4-8.32-9.4s-8.26,4.36-8.26,9.4,2.95,9.47,8.26,9.47,8.32-4.36,8.32-9.47Z" fill="#fafbfd"/><path d="M271.13,45.22h8.52v4.43c2.28-2.89,6.31-5.17,10.34-5.17v8.32c-.6-.13-1.41-.2-2.35-.2-2.82,0-6.58,1.54-7.99,3.62v21.41h-8.52v-32.42Z" fill="#fafbfd"/><path d="M307.71,65.15l-3.89,4.16v8.32h-8.52v-44.77h8.52v26.78l12.29-14.43h10.47l-12.82,14.7,13.22,17.72h-10.67l-8.59-12.48Z" fill="#fafbfd"/><path d="M331.62,67.44c2.35,2.22,7.18,4.43,11.21,4.43,3.69,0,5.44-1.27,5.44-3.29,0-2.28-2.82-3.09-6.51-3.83-5.57-1.07-12.75-2.42-12.75-10.13,0-5.44,4.77-10.2,13.29-10.2,5.5,0,9.87,1.88,13.02,4.43l-3.36,5.84c-1.95-2.08-5.64-3.76-9.6-3.76-3.09,0-5.1,1.14-5.1,3.02,0,2.01,2.55,2.75,6.18,3.49,5.57,1.07,13.02,2.55,13.02,10.61,0,5.97-5.04,10.4-14.03,10.4-5.64,0-11.07-1.88-14.5-5.03l3.69-5.98Z" fill="#fafbfd"/><path d="M364.64,52.67h-5.37v-7.45h5.37v-1.75c0-7.05,4.56-11.28,10.94-11.28,2.42,0,4.63.54,6.18,1.34l-1.75,6.04c-.74-.47-1.75-.67-2.75-.67-2.42,0-4.03,1.61-4.03,4.7v1.61h6.58v7.45h-6.58v24.97h-8.59v-24.97Z" fill="#fafbfd"/><path d="M382.64,61.4c0-9.19,6.44-16.98,17.12-16.98s17.18,7.79,17.18,16.98-6.44,17.05-17.18,17.05-17.12-7.79-17.12-17.05ZM408.08,61.4c0-5.03-3.02-9.4-8.32-9.4s-8.26,4.36-8.26,9.4,2.95,9.47,8.26,9.47,8.32-4.36,8.32-9.47Z" fill="#fafbfd"/><path d="M423.25,45.22h8.53v4.43c2.28-2.89,6.31-5.17,10.34-5.17v8.32c-.61-.13-1.41-.2-2.35-.2-2.82,0-6.58,1.54-7.99,3.62v21.41h-8.53v-32.42Z" fill="#fafbfd"/><path d="M469.3,73.55c-2.21,2.48-6.11,4.9-11.41,4.9-7.12,0-10.47-3.89-10.47-10.2v-23.02h8.53v19.67c0,4.5,2.35,5.98,5.97,5.98,3.29,0,5.91-1.81,7.38-3.69v-21.95h8.53v32.42h-8.53v-4.09Z" fill="#fafbfd"/><path d="M487.16,67.44c2.35,2.22,7.18,4.43,11.21,4.43,3.69,0,5.44-1.27,5.44-3.29,0-2.28-2.82-3.09-6.51-3.83-5.57-1.07-12.75-2.42-12.75-10.13,0-5.44,4.76-10.2,13.29-10.2,5.5,0,9.87,1.88,13.02,4.43l-3.36,5.84c-1.95-2.08-5.64-3.76-9.6-3.76-3.09,0-5.1,1.14-5.1,3.02,0,2.01,2.55,2.75,6.18,3.49,5.57,1.07,13.02,2.55,13.02,10.61,0,5.97-5.03,10.4-14.03,10.4-5.64,0-11.08-1.88-14.5-5.03l3.69-5.98Z" fill="#fafbfd"/></svg>