<?xml version="1.0" encoding="UTF-8"?><svg id="Layer_1" xmlns="http://www.w3.org/2000/svg" viewBox="0 0 200 40"><defs><style>.cls-1,.cls-2,.cls-3{fill:#ff3b30;}.cls-4{fill:#262f3d;}.cls-2{opacity:.15;}.cls-2,.cls-3{isolation:isolate;}.cls-3{opacity:.45;}</style></defs><rect class="cls-2" x="19.923" y="3" width="34" height="34"/><rect class="cls-3" x="28.423" y="11.5" width="17" height="17"/><rect class="cls-1" x="36.923" y="20" width="8.5" height="8.5"/><path class="cls-4" d="M65.902,25.146c-.692.819-1.89,1.302-3.212,1.302-1.617,0-3.527-1.092-3.527-3.359,0-2.372,1.91-3.233,3.527-3.233,1.344,0,2.54.42,3.212,1.239v-1.407c0-1.028-.882-1.7-2.226-1.7-1.092,0-2.1.398-2.96,1.196l-1.008-1.784c1.238-1.092,2.834-1.596,4.43-1.596,2.31,0,4.431.924,4.431,3.842v6.551h-2.667v-1.05ZM65.902,22.5c-.44-.588-1.28-.882-2.142-.882-1.05,0-1.91.567-1.91,1.533,0,.944.86,1.49,1.91,1.49.861,0,1.701-.294,2.142-.882v-1.26Z"/><path class="cls-4" d="M70.943,12.968c0-.882.735-1.596,1.596-1.596.882,0,1.596.714,1.596,1.596s-.714,1.596-1.596,1.596c-.86,0-1.596-.714-1.596-1.596ZM71.216,16.055h2.666v10.141h-2.666v-10.141Z"/><path class="cls-4" d="M83.289,19.288l-2.142,6.907h-2.855l-3.086-10.141h2.771l1.89,6.823,2.226-6.823h2.372l2.226,6.823,1.89-6.823h2.771l-3.086,10.141h-2.835l-2.142-6.907Z"/><path class="cls-4" d="M92.027,21.114c0-2.876,2.016-5.312,5.354-5.312,3.359,0,5.375,2.436,5.375,5.312,0,2.897-2.016,5.333-5.375,5.333-3.339,0-5.354-2.436-5.354-5.333ZM99.985,21.114c0-1.574-.945-2.939-2.604-2.939s-2.583,1.365-2.583,2.939c0,1.596.924,2.961,2.583,2.961s2.604-1.365,2.604-2.961Z"/><path class="cls-4" d="M104.732,16.055h2.666v1.386c.714-.903,1.974-1.617,3.233-1.617v2.604c-.188-.042-.44-.062-.734-.062-.882,0-2.058.482-2.499,1.134v6.697h-2.666v-10.141Z"/><path class="cls-4" d="M116.175,22.29l-1.218,1.302v2.604h-2.666v-14.004h2.666v8.377l3.843-4.514h3.275l-4.011,4.598,4.137,5.543h-3.339l-2.688-3.905Z"/><path class="cls-4" d="M123.653,23.004c.734.693,2.246,1.386,3.506,1.386,1.155,0,1.701-.398,1.701-1.028,0-.714-.882-.966-2.037-1.197-1.742-.336-3.989-.756-3.989-3.17,0-1.701,1.491-3.191,4.157-3.191,1.722,0,3.087.588,4.073,1.386l-1.05,1.826c-.608-.65-1.764-1.176-3.002-1.176-.966,0-1.596.357-1.596.945,0,.63.798.86,1.932,1.092,1.742.336,4.073.798,4.073,3.317,0,1.868-1.575,3.254-4.389,3.254-1.764,0-3.464-.588-4.535-1.574l1.155-1.869Z"/><path class="cls-4" d="M133.984,18.385h-1.68v-2.33h1.68v-.546c0-2.205,1.428-3.527,3.423-3.527.756,0,1.448.168,1.932.42l-.546,1.89c-.231-.147-.546-.21-.861-.21-.756,0-1.26.504-1.26,1.47v.504h2.058v2.33h-2.058v7.811h-2.688v-7.811Z"/><path class="cls-4" d="M139.612,21.114c0-2.876,2.016-5.312,5.354-5.312,3.359,0,5.375,2.436,5.375,5.312,0,2.897-2.016,5.333-5.375,5.333-3.339,0-5.354-2.436-5.354-5.333ZM147.57,21.114c0-1.574-.945-2.939-2.604-2.939s-2.583,1.365-2.583,2.939c0,1.596.924,2.961,2.583,2.961s2.604-1.365,2.604-2.961Z"/><path class="cls-4" d="M152.317,16.055h2.667v1.386c.714-.903,1.974-1.617,3.233-1.617v2.604c-.189-.042-.441-.062-.735-.062-.882,0-2.058.482-2.498,1.134v6.697h-2.667v-10.141Z"/><path class="cls-4" d="M166.721,24.915c-.692.776-1.91,1.532-3.569,1.532-2.226,0-3.275-1.218-3.275-3.191v-7.201h2.667v6.151c0,1.407.734,1.869,1.868,1.869,1.029,0,1.848-.567,2.31-1.155v-6.865h2.667v10.141h-2.667v-1.28Z"/><path class="cls-4" d="M172.308,23.004c.735.693,2.247,1.386,3.507,1.386,1.154,0,1.7-.398,1.7-1.028,0-.714-.882-.966-2.036-1.197-1.743-.336-3.989-.756-3.989-3.17,0-1.701,1.49-3.191,4.157-3.191,1.722,0,3.086.588,4.073,1.386l-1.05,1.826c-.609-.65-1.764-1.176-3.003-1.176-.966,0-1.596.357-1.596.945,0,.63.798.86,1.932,1.092,1.743.336,4.073.798,4.073,3.317,0,1.868-1.574,3.254-4.388,3.254-1.764,0-3.465-.588-4.535-1.574l1.154-1.869Z"/></svg>